<?xml version="1.0" standalone="no"?>
<!DOCTYPE svg PUBLIC "-//W3C//DTD SVG 20010904//EN"
 "http://www.w3.org/TR/2001/REC-SVG-20010904/DTD/svg10.dtd">
<svg version="1.0" xmlns="http://www.w3.org/2000/svg"
 width="1200.000000pt" height="429.000000pt" viewBox="0 0 1200.000000 429.000000"
 preserveAspectRatio="xMidYMid meet">

<g transform="translate(0.000000,429.000000) scale(0.100000,-0.100000)"
fill="#000000" stroke="none">
<path d="M7910 3604 c-417 -89 -721 -438 -772 -888 -31 -269 68 -573 261 -803
110 -131 318 -266 476 -309 92 -25 332 -30 436 -9 250 50 463 179 576 349 29
44 53 85 53 92 0 7 -41 36 -92 65 -146 84 -221 78 -337 -25 -100 -89 -179
-126 -312 -147 -281 -43 -555 161 -641 478 -29 109 -29 287 1 397 35 132 85
221 170 306 123 123 217 161 391 161 158 0 272 -43 389 -145 110 -95 175 -99
301 -16 44 29 84 58 91 66 17 21 -41 112 -127 199 -118 119 -258 194 -427 229
-96 20 -345 20 -437 0z"/>
<path d="M11325 3604 c-148 -77 -163 -273 -28 -368 114 -80 287 -18 323 116
26 95 -17 201 -99 245 -53 28 -149 32 -196 7z m152 -25 c66 -25 113 -95 113
-169 0 -41 -33 -120 -49 -120 -5 0 -22 23 -38 51 l-29 52 23 23 c32 32 30 77
-3 103 -22 17 -41 21 -100 21 l-74 0 0 -131 0 -130 33 3 c31 3 32 5 33 48 0
25 4 44 7 43 4 -2 10 -3 15 -3 4 0 18 -20 31 -44 20 -39 28 -45 60 -48 l36 -3
-35 -19 c-44 -24 -114 -25 -162 -2 -66 32 -104 119 -86 198 23 106 127 164
225 127z m-21 -111 c7 -24 -17 -48 -48 -48 -14 0 -18 8 -18 35 0 32 2 35 29
35 22 0 32 -6 37 -22z"/>
<path d="M1752 2693 c3 -1018 -1 -952 69 -1022 55 -55 84 -65 207 -69 l113 -4
-3 913 -3 914 -23 45 c-33 63 -59 89 -117 116 -42 20 -66 24 -148 24 l-98 0 3
-917z"/>
<path d="M3715 3586 c-95 -44 -135 -114 -135 -236 l0 -81 273 3 272 3 57 28
c94 46 138 122 138 237 l0 70 -277 0 c-271 0 -279 -1 -328 -24z"/>
<path d="M4490 2599 l0 -1012 108 5 c72 3 117 10 138 21 56 29 96 70 120 122
l24 50 0 743 0 742 228 0 c225 0 229 0 280 26 94 47 142 133 142 256 l0 58
-520 0 -520 0 0 -1011z"/>
<path d="M5692 2698 c3 -1010 -1 -943 68 -1022 18 -20 52 -47 74 -59 40 -22
48 -22 544 -25 332 -2 516 1 542 8 60 16 121 68 153 129 23 46 27 67 27 133
l0 78 -505 0 -505 0 0 260 0 260 313 0 c247 0 324 3 363 15 105 31 174 127
174 242 l0 63 -422 2 -423 3 -3 242 -2 242 408 3 409 3 49 30 c30 19 60 49 79
79 26 42 31 62 35 138 l5 88 -693 0 -693 0 3 -912z"/>
<path d="M9110 2713 c0 -581 4 -911 10 -935 18 -63 70 -130 125 -158 44 -22
62 -25 155 -25 l105 0 0 920 0 920 -22 40 c-12 22 -36 54 -55 72 -53 51 -94
63 -213 63 l-105 0 0 -897z"/>
<path d="M10565 3591 c-51 -23 -118 -98 -133 -149 -8 -26 -12 -140 -12 -346
l0 -306 -255 0 c-140 0 -275 -5 -302 -11 -64 -14 -121 -55 -157 -112 -25 -41
-30 -61 -34 -133 l-5 -84 377 0 376 0 0 -327 c1 -353 3 -371 54 -438 15 -19
47 -47 73 -62 40 -23 59 -27 154 -31 l109 -5 0 1012 0 1011 -102 0 c-78 0
-113 -5 -143 -19z"/>
<path d="M1007 2938 c-5 -704 -8 -755 -55 -861 -34 -76 -70 -115 -139 -149
-63 -31 -68 -32 -176 -29 -248 7 -239 7 -290 -18 -26 -12 -59 -39 -74 -58 -27
-35 -64 -132 -56 -146 11 -18 148 -78 225 -98 66 -18 110 -22 218 -22 172 1
268 20 386 78 182 89 277 240 319 505 21 140 26 295 28 908 l2 552 -192 0
-191 0 -5 -662z"/>
<path d="M3114 3581 c-60 -15 -137 -65 -176 -116 -302 -399 -413 -543 -427
-561 -91 -107 -179 -236 -190 -278 -20 -79 -3 -116 126 -282 34 -43 154 -200
267 -349 261 -343 263 -345 327 -380 54 -30 55 -30 238 -33 150 -3 182 -1 175
10 -4 7 -38 54 -74 103 -37 50 -169 230 -294 400 -126 171 -255 345 -287 387
-33 43 -62 84 -65 92 -5 13 135 207 628 873 54 73 98 135 98 138 0 8 -311 4
-346 -4z"/>
<path d="M1780 680 l0 -210 28 0 28 0 -2 203 c-1 111 -3 205 -3 210 -1 4 -12
7 -26 7 l-25 0 0 -210z"/>
<path d="M2040 680 l0 -210 25 0 25 0 2 163 3 162 34 -60 c19 -33 52 -93 73
-133 55 -102 63 -99 152 63 l71 130 3 -162 2 -163 25 0 25 0 0 208 0 208 -25
2 c-29 2 -40 -13 -129 -180 -32 -60 -61 -108 -64 -108 -4 0 -41 61 -82 136
-70 128 -93 154 -131 154 -5 0 -9 -86 -9 -210z"/>
<path d="M2721 687 c-44 -111 -81 -206 -81 -210 0 -5 12 -7 26 -5 21 2 31 13
48 55 l21 53 95 0 95 0 21 -53 c17 -42 27 -53 48 -55 14 -2 26 -1 26 1 0 13
-149 382 -163 405 -5 6 -19 12 -31 12 -21 0 -32 -21 -105 -203z m150 36 l36
-98 -75 -3 c-41 -2 -76 -1 -79 1 -5 5 70 197 77 197 3 0 22 -44 41 -97z"/>
<path d="M3276 875 c-72 -25 -119 -85 -131 -166 -20 -136 74 -243 215 -243 63
-1 149 28 143 47 -2 4 -3 40 -3 80 l0 74 -60 2 c-54 2 -60 0 -60 -18 0 -16 8
-20 38 -23 36 -3 37 -4 40 -49 3 -43 1 -47 -28 -59 -42 -17 -134 -8 -168 17
-64 46 -84 167 -39 234 44 67 145 89 219 49 36 -19 38 -19 47 -1 11 20 -6 41
-44 55 -39 15 -130 15 -169 1z"/>
<path d="M3690 681 l0 -211 30 0 30 0 -2 208 -3 207 -27 3 -28 3 0 -210z"/>
<path d="M3959 885 c-1 -3 -1 -14 -1 -25 0 -360 2 -390 22 -390 19 0 20 7 20
155 0 85 3 155 8 155 4 0 27 -28 52 -63 108 -149 192 -247 211 -247 18 0 19 9
19 209 0 204 -1 210 -20 208 -11 -1 -20 -6 -20 -12 -1 -5 -1 -77 0 -158 1 -88
-3 -148 -8 -145 -6 1 -58 66 -117 143 -58 77 -116 148 -127 158 -20 17 -37 22
-39 12z"/>
<path d="M4500 680 l0 -210 125 0 c118 0 125 1 125 20 0 18 -8 20 -97 22 l-98
3 0 70 0 70 78 3 c69 3 77 5 77 22 0 18 -7 20 -80 20 l-80 0 0 70 0 70 100 0
100 0 0 25 0 25 -125 0 -125 0 0 -210z"/>
<path d="M5119 888 c-1 -2 -3 -13 -4 -25 -2 -22 1 -23 66 -23 l69 0 0 -185 0
-185 25 0 25 0 0 185 0 185 70 0 c68 0 70 1 70 25 l0 25 -160 0 c-88 0 -161
-1 -161 -2z"/>
<path d="M5600 680 l0 -210 25 0 c24 0 24 2 27 93 l3 92 113 3 112 3 0 -96 0
-95 30 0 30 0 -2 208 -3 207 -25 0 c-25 0 -25 -1 -28 -92 l-3 -93 -115 0 c-86
0 -114 3 -113 13 1 6 1 49 0 95 -1 81 -1 82 -26 82 l-25 0 0 -210z"/>
<path d="M6149 886 c-2 -2 -3 -97 -1 -210 l3 -206 124 0 c118 0 125 1 125 20
0 19 -7 20 -100 20 l-100 0 0 75 0 75 80 0 c73 0 80 2 80 20 0 18 -7 20 -80
20 l-80 0 0 70 0 70 100 0 100 0 0 25 0 25 -123 0 c-68 0 -126 -2 -128 -4z"/>
<path d="M6827 883 c-4 -3 -7 -98 -7 -210 l0 -203 30 0 30 0 0 90 0 90 83 0
c76 0 83 2 83 20 0 18 -7 20 -83 20 l-83 0 0 75 0 75 95 0 c95 0 95 0 95 25
l0 25 -118 0 c-65 0 -122 -3 -125 -7z"/>
<path d="M7242 738 c3 -127 7 -160 23 -193 53 -107 224 -110 287 -5 18 31 21
52 21 190 l1 155 -27 3 -27 3 0 -148 c0 -127 -3 -152 -19 -179 -38 -63 -128
-70 -175 -13 -25 30 -26 34 -26 185 l0 154 -31 0 -31 0 4 -152z"/>
<path d="M7730 865 c0 -24 2 -25 70 -25 l70 0 0 -185 0 -185 29 0 30 0 -1 183
-1 182 65 3 c63 3 65 4 60 27 l-4 25 -159 0 -159 0 0 -25z"/>
<path d="M8210 766 c0 -69 5 -147 11 -174 24 -114 151 -165 254 -102 57 35 64
61 65 226 1 82 1 155 0 162 0 8 -9 12 -22 10 -23 -3 -23 -6 -28 -161 l-5 -159
-28 -24 c-51 -44 -103 -44 -154 0 l-28 24 -5 159 -5 158 -27 3 -28 3 0 -125z"/>
<path d="M8750 680 l0 -210 28 0 27 0 -3 85 -3 85 34 0 c32 0 39 -7 96 -85 54
-74 66 -85 92 -85 l30 0 -22 33 c-13 17 -40 55 -61 83 -43 57 -46 70 -20 78
67 22 92 130 42 181 -28 27 -103 45 -192 45 l-48 0 0 -210z m173 151 c35 -14
53 -62 35 -97 -18 -38 -53 -55 -108 -52 l-45 3 -3 64 c-2 35 -1 70 2 77 6 16
82 19 119 5z"/>
<path d="M9210 680 l0 -210 130 0 c123 0 130 1 130 20 0 19 -7 20 -100 20
l-100 0 -1 50 c-1 28 -2 60 -2 73 -1 21 3 22 81 25 73 2 82 5 82 22 0 17 -9
20 -81 22 l-81 3 -1 65 -1 65 103 3 c99 3 102 3 99 25 -3 21 -7 22 -130 25
l-128 3 0 -211z"/>
</g>
</svg>
